<?xml version="1.0" encoding="utf-8"?>
<!-- Generator: Adobe Illustrator 26.0.3, SVG Export Plug-In . SVG Version: 6.00 Build 0)  -->
<svg version="1.0" id="katman_1" xmlns="http://www.w3.org/2000/svg" xmlns:xlink="http://www.w3.org/1999/xlink" x="0px" y="0px"
	 viewBox="0 0 600 450" style="enable-background:new 0 0 600 450;" xml:space="preserve">
<style type="text/css">
	.st0{fill:#DD0B15;}
</style>
<path class="st0" d="M166.7,173.6c-0.1,9.2-0.1,18.5-0.1,27.7c0,1.9,0,3.9,0,6c-14,16.1-27.9,32.2-42.3,48.8c14.3,0,28.1,0,42.5,0
	c0,7.2,0,14.1,0,21c-20.3,0-40.6,0-60.9,0c-3.6-6.7-6.8-13.7-10.9-20.1c0-0.5,0-0.9,0-1.4c1.3-0.4,1.8-1.6,2.7-2.5
	c18.2-21.1,36.5-42.1,54.7-63.2c4.6-5.3,9.6-10.4,13.7-16.2C166.2,173.6,166.5,173.6,166.7,173.6z"/>
<path class="st0" d="M181.8,277.1c0-6.8,0-13.6,0-20.7c14,0,27.6,0,41.4,0c0.1-0.2,0.3-0.5,0.4-0.7c-14-16.1-27.8-32.1-41.7-48.1
	c0-11.1,0-22,0-33.7c24.1,27.7,47.7,54.9,71.4,82.3c-2.7,5.1-5.3,10.1-7.9,15.1c-1,1.9-2.3,3.7-2.7,5.9
	C222.3,277.1,202.1,277.1,181.8,277.1z"/>
<path d="M298.7,277.1c-0.4-0.7-0.1-1.4,0.1-2c2.7-8.4,5.5-16.8,8.2-25.2c0.2-0.6,0.6-1.2,0.9-1.9c2.9-0.4,5.7-0.4,8.3-0.1
	c0.9,0.6,1.1,1.5,1.4,2.2c2.8,8.6,5.6,17.2,8.4,25.9c0.1,0.3,0.1,0.7,0.1,1c-2.5,0-5,0-7.5,0c0.3-2.6-0.9-4.8-1.8-7.1
	c-3.3,0-6.4-0.2-9.6,0.1c-0.8,2.4-1.5,4.7-2.2,6.9C302.8,277.1,300.8,277.1,298.7,277.1z M315.3,264.5c-1.2-3.7-1.8-7.1-3.4-10.9
	c-1.2,4.1-2.5,7.3-2.9,10.9C311.2,264.5,313.1,264.5,315.3,264.5z"/>
<path d="M505.3,235.4c-1.9,0-3.8,0-5.5,0c-1.2-0.7-0.5-1.7-1.1-2.4c-0.3,0.1-0.7,0.1-0.9,0.3c-2.5,2.4-5.7,2.2-8.7,1.8
	c-2.4-0.3-3.9-1.9-4.3-4.3c-0.8-4.7-0.8-9.4,0-14.1c0.5-2.8,2.1-4.2,4.9-4.4c3.1-0.2,6.2-0.5,9.2,2.3c0-3.7,0-6.8,0-9.8
	c2.3-1,4.4-0.1,6.4-0.8C505.3,214.6,505.3,225,505.3,235.4z M498.9,218.3c-2.6-1.1-5.1-1.3-7.8-0.2c-0.5,3.8-0.5,7.6,0,11.5
	c2.8,1,5.3,0.8,7.8-0.5C498.9,225.6,498.9,222.1,498.9,218.3z"/>
<path d="M343.2,277.1c0-10.1,0-20.3,0-30.5c2.1-0.3,4-0.2,6.2,0c0,5.6,0,10.9,0,16.5c2.8-0.2,3.1-2.6,4.4-4c1.2-1.5,2.3-3.1,3.4-4.7
	c2.1-0.3,4.2-0.2,6.8-0.1c-2.7,3.7-5.3,7.1-7.9,10.8c1.8,3.3,4.4,6.1,6.4,9.2c0.5,0.8,1.8,1.5,1.2,2.8c-2.3,0-4.6,0-6.8,0
	c-2.1-3.2-3.8-6.7-6.8-9.2c-0.3,0.1-0.5,0.2-0.8,0.3c0,2.9,0,5.9,0,8.8C347.3,277.1,345.2,277.1,343.2,277.1z"/>
<path d="M370.5,277.1c-2.5-2.4-3.1-5.4-3.3-8.7c-0.1-3.3-0.1-6.5,0.5-9.6c0.6-3,2.2-4.4,5.1-4.6c3.2-0.1,6.4-0.1,9.6,0
	c2.9,0.1,4.6,1.5,5.1,4.6c0.8,4.4,0.8,9,0.1,13.5c-0.3,2.1-1.8,3.3-2.8,4.9C380.1,277.1,375.3,277.1,370.5,277.1z M374,259.5
	c-0.7,4.1-0.8,8.1,0.1,12.2c2.5,0.3,4.8,0.6,7.2-0.1c0.8-4.1,0.8-8.1-0.1-12.3C378.7,259.1,376.5,258.9,374,259.5z"/>
<path d="M393.8,277.1c0-7.5,0-14.9,0-22.6c1.8-0.8,3.7-0.2,5.4-0.4c1.3,0.5,0.3,1.8,1.3,2.5c2.4-2.9,5.7-2.6,9-2.4
	c2.7,0.1,3.8,1.2,4.2,4c0.6,4.2,0.1,8.5,0.3,12.8c0.1,2.1-0.3,4.2,0.3,6.2c-2.3,0-4.6,0-6.8,0c0-5.8,0-11.5,0-17.1
	c-2.8-1.2-5.1-0.8-7.5,0.5c0,5.6,0,11.1,0,16.6C397.9,277.1,395.8,277.1,393.8,277.1z"/>
<path d="M330.9,277.1c0-10.1,0-20.3,0-30.5c2.2,0,4.1,0,6.2,0c0,10.3,0,20.4,0,30.5C335,277.1,332.9,277.1,330.9,277.1z"/>
<path d="M375.1,235.2c-2.3,0.2-4.2,0.3-6.5,0c0-5.7,0-11.4,0-16.9c-2.5-1.4-4.4-1-6.7,0.2c0,5.4,0,11,0,16.7
	c-2.3,0.3-4.2,0.2-6.3,0.1c0-7.6,0-15.1,0-22.7c2.1,0,4,0,5.9,0c0.3,0.6,0.5,1.2,0.8,1.9c4.4-2.6,8.5-3.7,12.8,0.6
	c2.3-2.2,5.1-3.1,8.4-2.7c3.2,0.4,4.6,1.6,4.6,4.8c0.1,5.9,0.1,11.8,0.1,17.8c-2.1,0.7-4.1,0.3-6.6,0.3c0-5.8,0-11.5,0-17.1
	c-2.5-1.2-4.4-0.8-6.6,0.3C375.1,223.9,375.1,229.4,375.1,235.2z"/>
<path d="M426.9,235.1c-2.2,0.3-4.1,0.3-6.4,0.1c0-5.8,0-11.4,0-16.8c-2.9-1.3-3.3-1.3-6.7,0.1c0,5.4,0,10.9,0,16.5
	c-2.1,0.7-4,0.2-6.1,0.4c-0.7-5.9,0.2-11.7-0.5-17.3c-2.4-1.2-4.4-0.7-6.6,0.4c0,5.4,0,11,0,16.6c-2.2,0-4,0-6.1,0
	c0-7.6,0-14.9,0-22.4c1.8-0.9,3.7-0.1,5.2-0.4c1.3,0.5,0.5,1.7,1.4,2.2c5.1-3.5,10.5-2.8,12.9,0.7c2.4-2.9,5.6-3.2,9-2.8
	c2.1,0.2,3.5,1.2,3.8,3.4C427.4,222.2,427,228.7,426.9,235.1z"/>
<path d="M323.8,216.5c-1.8,0-3.8,0-6,0c-0.3-1.4-0.3-2.9-1-4.6c-2.8-0.8-5.8-0.5-9.3-0.1c-1.2,5.9-0.9,11.7-0.2,17.8
	c3.3,0.4,6.2,0.3,9.1,0.1c1.4-1.5,1-3.3,1.5-5.1c1.9-0.5,3.9-0.3,5.8-0.1c0.5,1.5,0.3,2.9,0.1,4.3c-0.5,4.7-2.5,6.5-7,6.6
	c-3.2,0.1-6.4,0.1-9.6,0c-3.9-0.1-5.8-1.5-6.6-5.2c-1.3-6.2-1.3-12.6,0-18.9c0.8-3.7,2.5-5,6.2-5.1c3.4-0.1,6.8-0.1,10.3,0
	c4.3,0.1,6.2,1.8,6.7,6.1C324.1,213.6,324.4,215,323.8,216.5z"/>
<path d="M446.8,235.2c-0.6-0.5-0.1-1.5-1-1.9c-2.6,2.4-5.9,2.2-9.2,2c-2.2-0.1-3.6-1.2-4-3.5c-0.3-1.4-0.3-2.8-0.3-4.1
	c0.2-3.9,1.6-5.1,5.4-5.8c2.9-0.5,5.6,0.5,8.6,0.1c0.3-1.5,0.2-2.9-0.1-4.4c-2-0.8-3.9-0.3-5.5-0.3c-1.3,0.3-1,1.7-2,2.2
	c-1.5,0.2-3.2,0.2-4.9,0c-0.8-5.4,0.5-7.1,5.7-7.1c2.9,0,5.9-0.1,8.9,0.1c2.8,0.1,4.3,1.5,4.4,4.3c0.1,6.1,0.1,12.1,0.1,18.5
	C450.6,235.2,448.9,235.2,446.8,235.2z M446.4,229.4c-0.1-1.2,0.3-2.4-0.4-3.6c-2.3,0.1-4.7-0.5-6.9,0.5c-1,1.4-1,2.7-0.1,4.1
	C441.4,230.9,443.8,231,446.4,229.4z"/>
<path d="M329.2,223.8c0.1-2.1,0.1-4.2,0.3-6.2c0.5-3.5,2.2-5.1,5.7-5.1c2.9-0.1,5.9-0.1,8.9,0c3.4,0.1,4.7,1.2,5.4,4.6
	c0.9,4.6,0.9,9.2,0,13.7c-0.6,3.2-2.3,4.5-5.5,4.6c-2.8,0.1-5.7,0.1-8.6,0c-3.6-0.1-5.5-1.7-5.9-5.3
	C329.3,228,329.4,225.9,329.2,223.8z M343.3,229.8c0.6-4.1,0.8-8.1-0.2-12.4c-2.5,0.3-4.9-0.6-7.4,0.8c-0.2,3.9-0.3,7.7,0.1,11.6
	C338.5,230.5,340.7,230.4,343.3,229.8z"/>
<path d="M472.6,218.3c-2.8-1.4-5.1-0.9-7.6,0.1c0,5.4,0,11,0,16.5c-2.1,0.6-4,0.3-6.2,0.3c0-7.6,0-15,0-22.6
	c1.8-0.6,3.7-0.1,5.4-0.3c1,0.7,0.3,1.7,0.8,2.3c0.2-0.1,0.5-0.1,0.6-0.2c2.9-3,6.5-2.4,9.9-1.9c2.1,0.3,2.9,1.9,3.1,4
	c0.4,6.1,0.2,12.2,0.1,18.5c-2.1,0.5-4,0.2-6.3,0.2C472.6,229.6,472.6,223.9,472.6,218.3z"/>
</svg>
