<?xml version="1.0" encoding="UTF-8"?>
<!-- Generator: visioncortex VTracer 0.6.3 -->
<svg version="1.1" xmlns="http://www.w3.org/2000/svg" width="1280" height="1280">
<path d="M0 0 C0.99 -0 1.98 -0 3 -0 C5.09 0 7.17 0.01 9.25 0.03 C12.43 0.05 15.6 0.05 18.77 0.04 C20.81 0.05 22.84 0.05 24.88 0.06 C25.81 0.06 26.75 0.06 27.72 0.06 C40.9 0.2 40.9 0.2 45.12 3.8 C45.56 4.32 45.99 4.83 46.44 5.36 C47.21 5.8 47.99 6.23 48.79 6.67 C55.37 10.88 58.69 18.2 60.77 25.48 C61.36 27.56 61.36 27.56 63.38 29.3 C66.2 32.13 67.06 35.27 68.43 38.98 C69.38 41.54 69.38 41.54 71.56 43.93 C73.92 46.99 74.24 49.6 74.75 53.38 C75.24 55.55 75.24 55.55 77.38 56.33 C80.21 57.75 80.44 59.22 81.44 62.18 C82.94 66.27 84.62 69.01 87.44 72.36 C88.89 74.97 90.16 77.67 91.44 80.36 C92.12 81.74 92.81 83.11 93.5 84.49 C94.62 86.72 95.73 88.95 96.84 91.19 C98.5 94.48 100.2 97.74 101.94 100.99 C102.82 102.65 102.82 102.65 103.72 104.34 C105.3 107.3 105.3 107.3 107.1 109.47 C109.07 112.25 109.24 115.03 109.71 118.34 C110.24 120.54 110.24 120.54 112.34 121.3 C115.33 122.81 115.76 124.69 117 127.74 C118.5 131.39 120.08 134.22 122.44 137.36 C123.13 138.99 123.78 140.64 124.38 142.3 C125.91 146.3 127.68 149.07 130.44 152.36 C131.45 154.69 132.45 157.02 133.44 159.36 C134.08 160.31 134.72 161.26 135.38 162.24 C137.49 165.45 138.93 168.61 140.43 172.13 C141.88 175.35 143.65 178.31 145.44 181.36 C146.44 183.36 147.44 185.36 148.44 187.36 C149.43 189.13 150.45 190.88 151.46 192.63 C152.37 194.24 153.19 195.89 154 197.55 C155.28 200.32 155.28 200.32 157 202.18 C159.24 205.58 159.72 209.39 160.44 213.36 C163.08 213.36 165.72 213.36 168.44 213.36 C168.57 212.51 168.57 212.51 168.7 211.64 C169.63 206.55 170.92 203.35 174.14 199.33 C176.3 196.05 177.3 192.36 178.45 188.62 C178.77 187.88 179.1 187.13 179.44 186.36 C180.43 186.03 181.42 185.7 182.44 185.36 C183.32 183.46 183.32 183.46 183.88 181.18 C185.14 177 186.93 173.96 189.44 170.36 C190.18 168.63 190.18 168.63 190.94 166.86 C192.44 163.36 192.44 163.36 194.38 160.49 C196 158.03 197.11 155.97 198.25 153.3 C204.89 137.83 204.89 137.83 209.03 133.82 C211.02 131.76 211.56 129.58 212.44 126.86 C213.65 123.1 214.69 121.12 217.44 118.36 C218.55 115.74 218.55 115.74 219.44 112.86 C220.64 109.13 221.63 107.05 224.44 104.36 C225.32 102.75 226.15 101.1 226.94 99.43 C228.14 96.87 229.25 94.6 230.97 92.36 C232.62 90.11 233.48 87.98 234.44 85.36 C235.72 81.86 237.19 79.32 239.44 76.36 C240.15 74.88 240.81 73.38 241.44 71.86 C242.81 68.65 244.31 66.14 246.44 63.36 C247.15 61.69 247.15 61.69 247.88 59.99 C249.44 56.36 249.44 56.36 251.38 53.49 C253.49 50.28 254.93 47.12 256.43 43.6 C257.88 40.38 259.65 37.41 261.44 34.36 C261.95 33.25 262.47 32.14 263 30.99 C264.44 28.36 264.44 28.36 267.44 27.36 C267.96 25.42 268.48 23.48 268.9 21.51 C269.64 18.55 270.98 16.02 272.44 13.36 C273.1 13.36 273.76 13.36 274.44 13.36 C274.6 12.66 274.77 11.96 274.94 11.24 C277.12 7.05 280.27 4.54 284.44 2.36 C291 0.38 297.39 0.06 304.2 0.06 C305.2 0.06 306.2 0.05 307.22 0.05 C309.31 0.04 311.4 0.04 313.5 0.05 C316.69 0.05 319.89 0.03 323.09 0 C325.12 -0 327.16 -0 329.2 0 C330.63 -0.01 330.63 -0.01 332.09 -0.03 C338.82 0.02 341.94 1.15 347.03 5.66 C350.96 10.49 350.13 16.5 350.07 22.42 C350.08 23.77 350.09 25.11 350.1 26.46 C350.12 30.15 350.11 33.84 350.09 37.53 C350.08 41.52 350.1 45.5 350.11 49.48 C350.13 57.29 350.13 65.09 350.11 72.89 C350.1 79.23 350.1 85.57 350.11 91.91 C350.11 92.81 350.11 93.71 350.11 94.64 C350.11 96.48 350.11 98.31 350.11 100.14 C350.13 117.33 350.11 134.52 350.08 151.71 C350.06 166.46 350.07 181.21 350.09 195.96 C350.12 213.08 350.13 230.21 350.11 247.34 C350.11 249.16 350.11 250.99 350.11 252.82 C350.11 253.71 350.11 254.61 350.1 255.54 C350.1 261.87 350.11 268.21 350.12 274.54 C350.13 282.26 350.13 289.97 350.1 297.69 C350.09 301.63 350.08 305.57 350.1 309.5 C350.12 313.11 350.11 316.71 350.08 320.32 C350.07 322.24 350.09 324.16 350.11 326.08 C350 335.41 350 335.41 347.02 339.09 C343.23 342.42 340.87 343.61 335.84 343.64 C334.94 343.65 334.03 343.66 333.1 343.67 C332.13 343.67 331.16 343.67 330.16 343.66 C329.16 343.67 328.15 343.67 327.12 343.68 C325 343.68 322.88 343.68 320.76 343.68 C317.52 343.68 314.27 343.7 311.03 343.72 C308.97 343.73 306.91 343.73 304.85 343.73 C303.88 343.74 302.91 343.74 301.91 343.75 C295.46 343.71 292.02 342.94 287.34 338.27 C284.89 334.52 284.88 331.4 284.93 327.06 C284.92 326.23 284.91 325.4 284.9 324.54 C284.89 321.75 284.9 318.97 284.91 316.18 C284.9 314.18 284.89 312.18 284.88 310.18 C284.86 304.75 284.86 299.32 284.86 293.89 C284.86 288.21 284.84 282.53 284.82 276.85 C284.78 266.08 284.77 255.31 284.76 244.54 C284.75 228.74 284.71 212.94 284.67 197.15 C284.66 195.99 284.66 194.83 284.66 193.63 C284.65 191.32 284.64 189.01 284.64 186.7 C284.62 179.94 284.61 173.17 284.6 166.4 C284.6 162.19 284.59 157.98 284.58 153.77 C284.58 151.82 284.58 149.87 284.58 147.92 C284.58 145.25 284.58 142.58 284.57 139.92 C284.57 139.15 284.57 138.38 284.57 137.58 C284.56 133.1 284.34 128.77 283.44 124.36 C282.78 124.03 282.12 123.7 281.44 123.36 C281 124.46 280.57 125.55 280.12 126.68 C279.29 128.79 278.66 130.15 276.99 131.72 C274.85 133.99 274.06 136.4 272.94 139.3 C271.45 143.15 269.92 146.1 267.44 149.36 C266.76 150.93 266.14 152.51 265.56 154.11 C263.97 158.27 262.05 161.83 259.61 165.54 C258 168.04 256.71 170.68 255.44 173.36 C254.78 173.36 254.12 173.36 253.44 173.36 C253.28 173.99 253.12 174.62 252.96 175.27 C251.51 180.58 249.77 184.86 246.7 189.42 C245.01 192.03 243.69 194.77 242.34 197.56 C241.17 199.91 239.79 202.11 238.44 204.36 C237.41 206.39 236.41 208.42 235.41 210.46 C234.44 212.36 234.44 212.36 232.94 214.8 C231.57 217.14 230.51 219.44 229.44 221.93 C228.06 225.11 226.55 227.61 224.44 230.36 C223.96 231.56 223.49 232.76 223 233.99 C221.44 237.36 221.44 237.36 219.31 238.36 C218.69 238.69 218.08 239.02 217.44 239.36 C217.04 241.69 216.71 244.02 216.44 246.36 C215.18 249.28 213.92 251.75 211.95 254.24 C210.35 256.49 209.49 258.52 208.56 261.11 C206.7 265.95 204.31 270.06 201.44 274.36 C200.6 275.65 199.76 276.94 198.94 278.24 C198.31 279.23 198.31 279.23 197.66 280.23 C196.38 282.36 196.38 282.36 195.43 284.77 C192.12 292.69 186.66 297 179.44 301.36 C174.5 302.95 169.32 302.59 164.19 302.61 C163.18 302.63 162.16 302.65 161.12 302.68 C154.74 302.71 147.91 302.67 142.99 297.98 C141.74 296.49 140.59 294.93 139.44 293.36 C138.78 292.79 138.12 292.21 137.44 291.61 C134.89 288.75 133.51 285.67 131.86 282.23 C128.88 276.23 125.37 270.49 121.85 264.8 C120.1 261.78 118.82 258.67 117.5 255.45 C116.39 253.27 115.15 252.07 113.44 250.36 C112.41 248.35 112.41 248.35 111.5 246.11 C110.27 243.21 108.98 240.45 107.38 237.74 C105.44 234.36 105.44 234.36 103.94 230.8 C102.54 227.33 102.54 227.33 100.44 224.36 C98.44 221.36 98.44 221.36 97 217.99 C95.83 215.28 94.77 213.22 93.19 210.8 C90.06 205.96 87.61 200.8 85.09 195.63 C83.65 192.78 82.1 190.09 80.44 187.36 C78.66 184.09 76.91 180.81 75.16 177.52 C74.09 175.56 72.98 173.62 71.81 171.71 C70.56 169.57 69.75 167.65 69 165.3 C68.06 162.66 67.52 161.45 65.5 159.43 C62.83 156.76 61.81 153.91 60.37 150.46 C59.5 148.29 59.5 148.29 57.94 146.36 C55.96 143.73 54.85 140.9 53.55 137.88 C51.98 134.32 50.18 130.88 48.39 127.43 C47.44 125.36 47.44 125.36 47.44 123.36 C45.3 124.31 45.3 124.31 43.44 126.36 C43.05 129.21 42.92 131.67 42.96 134.52 C42.96 135.36 42.95 136.21 42.95 137.07 C42.94 139.9 42.96 142.73 42.99 145.56 C42.99 147.59 42.99 149.61 42.98 151.64 C42.98 156.01 42.99 160.37 43.01 164.74 C43.04 171.65 43.04 178.56 43.03 185.47 C43.02 202.63 43.04 219.8 43.08 236.96 C43.11 250.29 43.13 263.62 43.11 276.95 C43.1 283.81 43.12 290.68 43.15 297.54 C43.17 301.82 43.16 306.1 43.15 310.38 C43.15 312.35 43.16 314.33 43.18 316.31 C43.35 334.38 43.35 334.38 37.92 341 C35.3 343.41 33.43 343.49 29.98 343.51 C28.59 343.52 28.59 343.52 27.17 343.53 C26.17 343.53 25.17 343.53 24.14 343.53 C22.59 343.54 22.59 343.54 21.02 343.54 C18.84 343.55 16.66 343.55 14.48 343.55 C11.15 343.55 7.82 343.57 4.49 343.59 C2.37 343.59 0.25 343.59 -1.86 343.59 C-2.86 343.6 -3.86 343.61 -4.88 343.62 C-13.66 343.59 -13.66 343.59 -17.56 341.36 C-21.08 337.47 -21.69 334.09 -21.69 328.95 C-21.7 327.82 -21.7 326.69 -21.71 325.53 C-21.7 324.28 -21.7 323.03 -21.7 321.75 C-21.71 320.42 -21.71 319.08 -21.71 317.75 C-21.72 314.07 -21.72 310.4 -21.72 306.73 C-21.72 302.77 -21.73 298.81 -21.74 294.85 C-21.75 286.19 -21.76 277.53 -21.76 268.86 C-21.77 263.46 -21.77 258.05 -21.77 252.64 C-21.79 237.68 -21.8 222.71 -21.8 207.75 C-21.8 206.79 -21.8 205.83 -21.8 204.84 C-21.8 203.88 -21.8 202.92 -21.8 201.93 C-21.8 199.99 -21.8 198.04 -21.8 196.09 C-21.8 195.13 -21.8 194.16 -21.8 193.17 C-21.81 177.52 -21.82 161.88 -21.85 146.24 C-21.87 130.18 -21.88 114.12 -21.89 98.07 C-21.89 89.05 -21.89 80.03 -21.91 71.02 C-21.93 63.34 -21.93 55.66 -21.92 47.98 C-21.92 44.06 -21.92 40.14 -21.93 36.23 C-21.95 32.64 -21.95 29.05 -21.93 25.46 C-21.93 23.55 -21.94 21.64 -21.95 19.73 C-21.92 13.52 -21.68 8.81 -18.56 3.36 C-13.56 -0.61 -6.05 -0.06 0 0 Z " fill="#EA3224" transform="translate(411.5625,467.63671875)"/>
<path d="M0 0 C2.01 0.52 4.03 1.01 6.06 1.44 C10.87 2.58 13.95 4.13 18 7 C21.95 8.79 25.97 10.41 30 12 C30 12.66 30 13.32 30 14 C31.02 14.23 32.05 14.47 33.1 14.71 C37.14 15.87 40.15 17.99 43.38 20.62 C43.93 21.07 44.49 21.51 45.06 21.97 C46.72 23.3 48.36 24.65 50 26 C51.39 27.14 51.39 27.14 52.8 28.3 C57.92 32.65 59.68 34.6 60.31 41.31 C59.76 47.87 56.07 52.02 52 57 C51.48 57.87 50.97 58.73 50.44 59.62 C49.12 61.81 47.78 63.22 46 65 C45.71 65.68 45.42 66.36 45.12 67.06 C44 69 44 69 41.44 70 C40.63 70.33 39.83 70.66 39 71 C38.34 72.98 38.34 72.98 38 75 C32.55 78.63 26.39 78.55 20 78 C15.53 76.94 11.83 75.55 8 73 C8 72.34 8 71.68 8 71 C7.41 70.83 6.82 70.66 6.21 70.48 C-0.48 68.43 -0.48 68.43 -3.31 66.06 C-6.93 63.29 -10.73 62.32 -15.06 61.03 C-18 60 -18 60 -20.47 58.45 C-29.62 53.2 -43.98 54.8 -54.12 54.75 C-55.37 54.74 -56.62 54.73 -57.91 54.72 C-68.81 54.76 -79.91 54.99 -89.78 60 C-92.37 61.17 -94.92 61.78 -97.69 62.44 C-102.56 63.69 -105.29 65.53 -109 69 C-110.34 69.88 -111.69 70.73 -113.06 71.56 C-117.36 74.18 -121.04 77.01 -124.56 80.62 C-127 83 -127 83 -129.19 84 C-131.78 85.43 -131.94 87.27 -133 90 C-134.22 91.45 -135.45 92.9 -136.7 94.32 C-138.57 96.74 -139.77 99.38 -141.01 102.17 C-142 104 -142 104 -143.49 105.34 C-145.68 107.75 -146.15 110.26 -147 113.38 C-148.7 119.53 -148.7 119.53 -150.49 122.33 C-161.16 141.22 -156.91 175.24 -154.25 195.62 C-154.09 196.84 -153.94 198.06 -153.78 199.31 C-152.91 205.21 -151.85 210.15 -148.91 215.36 C-147.69 217.57 -147.1 219.81 -146.5 222.25 C-145.35 226.34 -144.11 228.08 -141 231 C-139.67 233.43 -138.49 235.91 -137.29 238.4 C-134.32 244.4 -131.51 249.05 -126 253 C-124.67 254.33 -123.33 255.67 -122 257 C-121.09 257.7 -120.19 258.4 -119.25 259.12 C-118.51 259.74 -117.76 260.36 -117 261 C-117 261.66 -117 262.32 -117 263 C-116.13 263.25 -115.27 263.5 -114.38 263.75 C-111 265 -111 265 -108.25 266.88 C-104.84 269.1 -101.56 270.47 -97.76 271.88 C-95.45 272.82 -93.37 273.87 -91.18 275.05 C-87.2 277.06 -83.36 277.86 -78.94 278.25 C-78.17 278.32 -77.41 278.4 -76.62 278.48 C-56.41 280.23 -33.51 281.29 -15 272 C-13.75 271.49 -12.5 270.99 -11.25 270.5 C-7.93 268.97 -4.95 267.18 -1.89 265.18 C-0 264 -0 264 2.09 263 C4.25 261.99 4.25 261.99 6.44 259.56 C8.88 257.12 10.97 255.63 14 254 C15.36 253.16 15.36 253.16 16.75 252.31 C21.02 250.59 24.47 250.07 29 251 C32.08 252.58 34.48 254.65 37 257 C37.72 257.66 38.43 258.32 39.17 259 C42.76 262.46 45.48 265.69 48 270 C48.87 270.68 49.73 271.36 50.62 272.06 C53.26 274.21 53.27 274.88 54 278 C54.66 278.27 55.32 278.54 56 278.81 C58 280 58 280 58.94 283.19 C59.01 287.84 58.26 289.97 56 294 C55.01 294.33 54.02 294.66 53 295 C52.67 295.99 52.34 296.98 52 298 C51.34 298 50.68 298 50 298 C49.78 298.56 49.56 299.13 49.34 299.71 C47.57 302.73 45.35 304.44 42.62 306.62 C41.67 307.4 40.71 308.18 39.73 308.98 C37.5 310.63 35.47 311.79 33 313 C31.82 314.21 31.82 314.21 30.62 315.44 C27.87 318.13 25.47 319.37 22 321 C21.07 321.64 20.14 322.28 19.19 322.94 C15.94 325.04 12.75 326.56 9.2 328.06 C7.38 328.84 5.59 329.69 3.81 330.56 C0.36 332.06 -3.19 332.7 -6.88 333.44 C-11.12 334.28 -14.82 335.19 -18.69 337.12 C-27.26 341.31 -38.1 340.17 -47.42 340.2 C-48.67 340.21 -49.93 340.21 -51.22 340.22 C-53.87 340.23 -56.51 340.24 -59.16 340.24 C-61.84 340.24 -64.51 340.26 -67.19 340.28 C-101.11 340.55 -101.11 340.55 -116 334 C-118.47 333.31 -120.95 332.67 -123.44 332.06 C-129.08 330.64 -133.93 328.86 -139 326 C-140.52 325.26 -140.52 325.26 -142.06 324.5 C-144.85 323.07 -147.56 321.55 -150.26 319.97 C-151.91 319.05 -153.61 318.24 -155.31 317.44 C-158 316 -158 316 -160 313 C-161.66 311.99 -163.33 310.99 -165 310 C-167 308.34 -169 306.67 -171 305 C-172.03 304.34 -173.06 303.68 -174.12 303 C-177.11 300.92 -178.82 298.89 -181 296 C-181.89 295.13 -182.77 294.27 -183.69 293.38 C-186 291 -186 291 -187 288 C-187.9 287.63 -187.9 287.63 -188.81 287.25 C-192.25 285.29 -193.25 282.51 -195 279 C-195 278.34 -195 277.68 -195 277 C-195.9 276.69 -195.9 276.69 -196.81 276.38 C-199.84 274.47 -200.65 272.25 -202 269 C-202 268.34 -202 267.68 -202 267 C-202.99 266.67 -203.98 266.34 -205 266 C-206.21 263.56 -206.21 263.56 -207.38 260.44 C-208.87 256.64 -210.35 253.2 -212.62 249.81 C-214.84 246.47 -216.11 243.21 -217.23 239.37 C-218.01 236.81 -218.01 236.81 -219.49 233.76 C-221.54 229.08 -222.1 224.25 -222.82 219.23 C-222.93 218.51 -223.04 217.8 -223.16 217.06 C-223.25 216.42 -223.34 215.79 -223.43 215.13 C-223.96 212.82 -223.96 212.82 -225.48 210.28 C-227.34 206.27 -227.78 202.78 -228.17 198.41 C-228.29 197.17 -228.29 197.17 -228.41 195.91 C-229.18 187.27 -229.3 178.65 -229.26 169.98 C-229.25 167.37 -229.26 164.76 -229.27 162.14 C-229.28 153.93 -229.05 145.81 -228.11 137.65 C-228.03 136.97 -227.95 136.3 -227.87 135.6 C-227.17 130.24 -225.74 125.25 -224.01 120.14 C-222.6 115.76 -221.71 111.29 -220.81 106.78 C-219.96 103.87 -218.8 102.39 -217 100 C-216.22 97.3 -216.22 97.3 -215.69 94.38 C-214.23 88.06 -211.56 83.35 -208 78 C-207.47 77.12 -206.95 76.24 -206.4 75.33 C-205 73 -205 73 -203.56 71.19 C-201.66 68.52 -200.39 65.7 -199.06 62.71 C-198 61 -198 61 -195 60 C-194.71 59.07 -194.42 58.14 -194.12 57.19 C-192.77 53.35 -191.19 52.43 -188 50 C-186.65 48.01 -185.31 46.01 -184 44 C-180.89 40.65 -177.56 37.85 -174 35 C-173.15 34.11 -172.31 33.23 -171.44 32.31 C-168.96 29.97 -168.12 29.75 -165 29 C-164.73 28.39 -164.46 27.79 -164.18 27.16 C-162.65 24.37 -161.01 23.54 -158.25 22 C-154.39 19.8 -150.68 17.48 -147 15 C-145.34 13.99 -143.67 12.99 -142 12 C-141.28 11.5 -140.56 11.01 -139.81 10.5 C-137.2 9.11 -134.96 8.36 -132.12 7.56 C-128.32 6.5 -125.47 5.08 -122.11 2.97 C-118.07 1.11 -113.63 0.56 -109.29 -0.28 C-105.88 -0.91 -105.88 -0.91 -102.44 -2.56 C-75.96 -13.64 -26 -11.22 0 0 Z " fill="#EA3224" transform="translate(291,473)"/>
<path d="M0 0 C1.91 0.56 3.82 1.09 5.75 1.56 C9.13 2.4 11.06 3.04 14 5 C14 5.66 14 6.32 14 7 C14.58 7.1 15.16 7.2 15.76 7.3 C21.1 8.32 24.53 9.78 29 13 C31.82 14.55 34.66 16.05 37.51 17.54 C39.77 18.86 41.23 20.11 43 22 C43.89 22.58 44.77 23.15 45.69 23.75 C52.47 28.26 57.93 32.24 59.93 40.5 C60.05 44.97 57.75 47.69 55 51 C54.44 51.83 53.89 52.65 53.31 53.5 C52.88 54 52.45 54.49 52 55 C51.34 55 50.68 55 50 55 C49.69 56.52 49.69 56.52 49.38 58.06 C48.26 62.02 46.2 64.41 43.43 67.37 C41.83 69.06 41.83 69.06 40.62 71.69 C38.11 75.27 35.16 76.76 31 78 C24.06 78.85 16.16 78.7 10 75 C9.68 74.34 9.36 73.67 9.04 72.99 C8.16 70.82 8.16 70.82 5.94 70.02 C5.16 69.81 4.37 69.6 3.56 69.38 C0.48 68.51 -1.27 67.82 -4 66 C-4 65.34 -4 64.68 -4 64 C-5.09 63.75 -6.17 63.49 -7.29 63.23 C-8.73 62.88 -10.18 62.54 -11.62 62.19 C-12.34 62.02 -13.05 61.86 -13.79 61.69 C-18.22 60.61 -21.91 59.07 -26 57 C-47.98 51.13 -76.1 53.34 -97 62 C-97.73 62.28 -98.46 62.56 -99.21 62.85 C-103.17 64.43 -106.49 66.61 -110 69 C-110.92 69.42 -111.84 69.84 -112.78 70.27 C-116.56 72.3 -119.35 74.75 -122.44 77.69 C-123.29 78.49 -123.29 78.49 -124.16 79.3 C-129.87 84.72 -135.07 90.13 -139 97 C-139.48 97.44 -139.96 97.88 -140.45 98.33 C-142.36 100.39 -143.05 102.3 -144 104.94 C-144.97 107.61 -145.77 109.7 -147.54 111.94 C-149.41 114.58 -149.82 116.89 -150.44 120.06 C-151.54 125.3 -153.02 130.06 -155.13 134.98 C-157.83 144.37 -157.19 154.69 -157.19 164.39 C-157.19 166.73 -157.21 169.08 -157.22 171.42 C-157.27 183.63 -157.12 195.73 -152 207 C-151.24 210.55 -150.56 214.11 -149.94 217.7 C-148.9 221.34 -147.43 223.14 -145 226 C-143.88 228.54 -143.88 228.54 -143 231.06 C-141.51 234.99 -140.13 237.16 -137 240 C-136.25 241.22 -135.52 242.45 -134.81 243.69 C-128.43 254.19 -117.73 262.29 -107 268 C-107 268.66 -107 269.32 -107 270 C-106.23 270.17 -105.45 270.34 -104.66 270.52 C-95.12 272.74 -95.12 272.74 -91.12 275.06 C-74.41 283.86 -43.01 281.27 -25.26 275.86 C-22.11 274.68 -19.06 273.39 -16 272 C-14.67 271.48 -13.33 270.96 -12 270.44 C-8.9 268.95 -6.65 267.17 -4 265 C-2 264 0 263 2 262 C3.7 260.71 5.36 259.37 7 258 C8.37 256.93 9.74 255.87 11.12 254.81 C11.79 254.3 12.45 253.79 13.13 253.27 C17.44 250.34 22.01 250.66 27 251 C31.55 252.14 33.85 254.61 37 258 C37.66 258.66 38.32 259.32 39 260 C39.66 260.66 40.32 261.32 41 262 C42.24 263.21 42.24 263.21 43.5 264.44 C50 271.1 50 271.1 50 274 C50.99 274.33 51.98 274.66 53 275 C55.65 278.18 56.91 280.3 57.44 284.44 C56.79 289.68 55.62 293.59 51.56 297.12 C50.72 297.74 49.87 298.36 49 299 C48.38 299.78 47.76 300.57 47.12 301.38 C41.49 308.34 32.38 316.32 23.85 318.98 C20.56 320.16 19.99 321.25 18 324 C15.58 325.12 15.58 325.12 12.81 326 C9.44 327.13 6.35 328.26 3.25 330 C-1.65 332.57 -6.99 333.72 -12.32 335.05 C-15.35 335.83 -18.28 336.71 -21.25 337.69 C-30.45 340.47 -40.27 340.16 -49.8 340.17 C-51.58 340.17 -51.58 340.17 -53.41 340.18 C-55.92 340.18 -58.42 340.19 -60.93 340.19 C-64.73 340.19 -68.52 340.21 -72.31 340.22 C-104.94 340.3 -104.94 340.3 -113.84 335 C-116.85 333.61 -119.87 333.12 -123.12 332.5 C-128.4 331.47 -131.64 330.19 -136 327 C-138.88 325.92 -141.77 324.95 -144.71 324.03 C-145.46 323.69 -146.22 323.35 -147 323 C-147.5 321.51 -147.5 321.51 -148 320 C-149.9 319.16 -149.9 319.16 -152.19 318.62 C-156.9 317.2 -159.38 315.3 -163 312 C-163.93 311.38 -164.86 310.76 -165.81 310.12 C-175.09 303.94 -184.76 296.36 -191 287 C-191 286.01 -191 285.02 -191 284 C-191.61 283.75 -192.22 283.5 -192.84 283.24 C-195.32 281.81 -196.1 280.65 -197.5 278.19 C-198.96 275.69 -200.3 273.65 -202.19 271.44 C-204 269 -204 269 -205.06 265.25 C-205.37 264.18 -205.68 263.11 -206 262 C-206.99 261.67 -207.98 261.34 -209 261 C-210.28 258.2 -210.28 258.2 -211.5 254.69 C-213.04 250.1 -213.04 250.1 -215.53 246.01 C-217.55 243.24 -218.14 240.49 -219 237.19 C-219.95 233.54 -220.9 230.22 -222.5 226.8 C-224.72 221.8 -225.23 216.43 -226 211.06 C-227.22 202.42 -227.22 202.42 -228.92 193.86 C-233.04 176.22 -232.73 155.71 -228.47 138.14 C-227.89 135.51 -227.47 132.87 -227.05 130.21 C-226.89 129.19 -226.72 128.16 -226.55 127.11 C-226.24 125.09 -225.92 123.08 -225.62 121.06 C-224.75 115.75 -223.5 111.49 -220.91 106.77 C-219.63 104.28 -219.1 101.79 -218.56 99.06 C-217.44 94.2 -215.84 90.36 -213.26 86.1 C-212 84.01 -210.93 81.89 -209.88 79.69 C-208.49 76.86 -206.92 74.5 -205 72 C-204.53 70.97 -204.05 69.94 -203.56 68.88 C-201.84 65.7 -201.05 65.53 -198 64 C-197.86 63.25 -197.73 62.5 -197.59 61.72 C-196.9 58.54 -195.75 57 -193.69 54.5 C-193.06 53.72 -192.42 52.95 -191.77 52.14 C-191.19 51.44 -190.6 50.73 -190 50 C-189.28 49.07 -188.56 48.14 -187.81 47.19 C-185.98 44.98 -184.06 42.99 -182 41 C-181.4 40.38 -180.79 39.76 -180.17 39.12 C-176.38 35.42 -172.17 32.26 -168 29 C-166.88 28.12 -166.88 28.12 -165.75 27.22 C-162.23 24.5 -159.16 22.62 -155 21 C-154.09 20.08 -154.09 20.08 -153.16 19.14 C-147.41 13.45 -139.47 9.99 -131.97 7.26 C-131.28 7.01 -130.59 6.76 -129.88 6.5 C-129.25 6.28 -128.63 6.07 -127.99 5.84 C-125.88 5.02 -125.88 5.02 -123.73 3.5 C-119.31 1.07 -114.53 0.67 -109.59 -0.16 C-106.09 -0.98 -104.03 -2.16 -101 -4 C-71.88 -10.78 -27.89 -12.25 0 0 Z " fill="#EA3224" transform="translate(1155,473)"/>
<path d="M0 0 C1.93 -0.01 1.93 -0.01 3.89 -0.03 C5.29 -0.01 6.68 0 8.08 0.02 C9.51 0.02 10.95 0.02 12.39 0.02 C15.4 0.02 18.41 0.04 21.42 0.07 C25.27 0.11 29.12 0.12 32.97 0.11 C35.94 0.11 38.91 0.12 41.87 0.14 C43.29 0.14 44.71 0.15 46.13 0.15 C48.12 0.15 50.1 0.17 52.09 0.2 C53.22 0.2 54.35 0.21 55.51 0.22 C58.91 0.66 60.81 1.59 63.54 3.62 C65.19 6.9 64.69 10.54 64.69 14.15 C64.69 15.03 64.7 15.91 64.7 16.82 C64.71 19.75 64.71 22.68 64.71 25.61 C64.72 27.64 64.72 29.67 64.72 31.7 C64.73 35.96 64.73 40.22 64.73 44.48 C64.73 49.95 64.74 55.41 64.76 60.88 C64.77 65.07 64.77 69.27 64.77 73.46 C64.77 75.48 64.78 77.49 64.79 79.51 C64.8 82.32 64.79 85.14 64.79 87.95 C64.79 88.79 64.8 89.63 64.8 90.49 C64.77 96.06 63.9 98.23 59.98 102.24 C59.18 103.02 58.37 103.81 57.54 104.62 C57.21 104.95 56.88 105.28 56.54 105.62 C56.87 106.28 57.2 106.94 57.54 107.62 C56.15 110.41 53.93 111.13 51.24 112.52 C49.23 113.66 49.23 113.66 47.54 116.62 C48.53 115.96 49.52 115.3 50.54 114.62 C50.23 119.8 47.24 123.21 43.54 126.62 C42.88 126.62 42.22 126.62 41.54 126.62 C39.7 128.29 39.7 128.29 37.86 130.43 C36.89 131.49 36.89 131.49 35.91 132.57 C35.46 133.25 35.01 133.92 34.54 134.62 C34.87 135.61 35.2 136.6 35.54 137.62 C33.56 139.6 33.56 139.6 31.54 141.62 C30.55 141.29 29.56 140.96 28.54 140.62 C25.41 144.71 25.41 144.71 24.54 149.62 C20.73 157.24 20.73 157.24 16.54 159.62 C15.88 159.62 15.22 159.62 14.54 159.62 C14.14 160.51 14.14 160.51 13.73 161.41 C12.53 163.64 11.31 165.08 9.51 166.85 C8.64 167.71 8.64 167.71 7.75 168.59 C7.14 169.17 6.54 169.76 5.92 170.37 C5.31 170.97 4.7 171.57 4.07 172.19 C2.57 173.67 1.06 175.14 -0.46 176.62 C-0.13 177.61 0.2 178.6 0.54 179.62 C-1.11 181.27 -2.76 182.92 -4.46 184.62 C-8.11 183.37 -9.24 182.94 -11.46 179.62 C-11.72 176.54 -11.72 176.54 -11.73 172.68 C-11.74 171.62 -11.74 171.62 -11.75 170.53 C-11.76 168.15 -11.76 165.77 -11.76 163.38 C-11.77 161.67 -11.78 159.97 -11.79 158.26 C-11.81 153.62 -11.82 148.98 -11.82 144.34 C-11.83 141.44 -11.83 138.54 -11.84 135.65 C-11.86 125.54 -11.88 115.43 -11.88 105.32 C-11.88 95.9 -11.91 86.47 -11.96 77.04 C-11.99 68.95 -12.01 60.86 -12.01 52.78 C-12.01 47.94 -12.02 43.11 -12.04 38.28 C-12.07 33.73 -12.07 29.19 -12.06 24.64 C-12.06 22.97 -12.06 21.3 -12.08 19.63 C-12.1 17.36 -12.09 15.08 -12.07 12.8 C-12.07 11.53 -12.07 10.25 -12.08 8.94 C-10.8 2.1 -6.52 -0.01 0 0 Z M54.54 106.62 C55.54 108.62 55.54 108.62 55.54 108.62 Z M20.54 147.62 C20.87 148.28 21.2 148.94 21.54 149.62 C22.2 148.96 22.86 148.3 23.54 147.62 C22.55 147.62 21.56 147.62 20.54 147.62 Z M-2.46 178.62 C-1.46 180.62 -1.46 180.62 -1.46 180.62 Z " fill="#F6B220" transform="translate(819.455078125,543.384765625)"/>
<path d="M0 0 C2.89 1 3.93 1.89 5.61 4.48 C7.4 9.01 7.42 12.83 7.39 17.66 C7.39 18.61 7.4 19.57 7.4 20.55 C7.42 23.7 7.41 26.85 7.4 30 C7.4 32.19 7.4 34.38 7.41 36.58 C7.41 41.17 7.41 45.77 7.39 50.37 C7.37 56.25 7.38 62.13 7.4 68.01 C7.41 72.54 7.41 77.07 7.4 81.6 C7.4 83.77 7.4 85.94 7.41 88.11 C7.42 91.14 7.4 94.18 7.39 97.21 C7.39 98.1 7.4 98.99 7.41 99.91 C7.33 107.82 5.08 113.51 -0.26 119.43 C-3.16 122.04 -6.41 123.54 -10 125 C-10.65 125.34 -11.3 125.68 -11.96 126.03 C-16.5 127.48 -20.9 127.28 -25.63 127.27 C-27.17 127.27 -27.17 127.27 -28.74 127.27 C-30.91 127.27 -33.07 127.27 -35.24 127.26 C-38.55 127.25 -41.87 127.26 -45.19 127.27 C-47.29 127.27 -49.4 127.27 -51.5 127.27 C-52.5 127.27 -53.49 127.27 -54.51 127.28 C-55.43 127.27 -56.36 127.27 -57.31 127.26 C-58.12 127.26 -58.93 127.26 -59.77 127.25 C-62.29 126.97 -63.86 126.35 -66 125 C-68.91 120.51 -69.38 116.92 -69.4 111.62 C-69.4 110.94 -69.4 110.25 -69.41 109.54 C-69.41 108.1 -69.4 106.65 -69.39 105.21 C-69.38 103.01 -69.39 100.81 -69.41 98.61 C-69.41 97.2 -69.4 95.79 -69.4 94.38 C-69.4 93.1 -69.39 91.83 -69.39 90.52 C-68.69 84.21 -65.34 79.88 -61.56 74.94 C-60.8 73.94 -60.04 72.93 -59.25 71.9 C-53.48 64.47 -53.48 64.47 -50.44 61.5 C-47.93 59.13 -47.93 59.13 -46.44 56.31 C-45 54 -45 54 -42.94 53.06 C-40.03 51.47 -39.98 49.06 -39 46 C-37.51 45.5 -37.51 45.5 -36 45 C-34.94 43.14 -34.94 43.14 -34 41 C-33.09 39.71 -32.15 38.44 -31.19 37.19 C-29.19 34.58 -27.25 31.95 -25.38 29.25 C-23.47 26.55 -21.38 24.3 -19 22 C-18.3 21.09 -17.6 20.18 -16.88 19.25 C-16.26 18.51 -15.64 17.76 -15 17 C-14.34 17 -13.68 17 -13 17 C-12.73 16.03 -12.46 15.06 -12.19 14.06 C-11.8 13.05 -11.4 12.04 -11 11 C-10.01 10.67 -9.02 10.34 -8 10 C-7.73 9.44 -7.46 8.89 -7.19 8.31 C-5.42 4.87 -2.79 2.67 0 0 Z " fill="#EA3224" transform="translate(877,684)"/>
<path d="M0 0 C1.2 -0.02 2.4 -0.03 3.64 -0.05 C9.12 -0.09 14.6 -0.13 20.08 -0.16 C22.97 -0.17 25.86 -0.2 28.75 -0.24 C32.25 -0.29 35.75 -0.31 39.24 -0.32 C41.22 -0.33 43.19 -0.36 45.16 -0.4 C55.15 -0.38 55.15 -0.38 58.78 2.54 C61.67 5.93 63.29 7.93 63.33 12.37 C63.34 13.21 63.36 14.05 63.37 14.91 C63.37 15.81 63.38 16.72 63.38 17.65 C63.39 19.05 63.39 19.05 63.4 20.48 C63.41 22.45 63.41 24.43 63.41 26.41 C63.42 29.42 63.45 32.43 63.49 35.44 C63.5 37.36 63.5 39.29 63.5 41.21 C63.52 42.1 63.53 43 63.55 43.92 C63.5 49.83 62.57 53.39 59.04 58.19 C56.08 59.18 54.07 59.33 50.98 59.32 C49.66 59.32 49.66 59.32 48.32 59.33 C46.04 59.19 46.04 59.19 44.04 58.19 C41.34 58.09 38.66 58.05 35.96 58.06 C35.16 58.06 34.35 58.06 33.53 58.06 C31.82 58.06 30.12 58.06 28.41 58.06 C25.82 58.07 23.22 58.06 20.62 58.06 C18.97 58.06 17.31 58.06 15.65 58.06 C14.88 58.06 14.11 58.06 13.31 58.05 C9.11 58.07 5.18 58.38 1.04 59.19 C-3.39 59.75 -6.19 59.78 -9.9 56.94 C-12.63 53.29 -13.08 50.48 -13.12 45.99 C-13.13 45.18 -13.14 44.36 -13.15 43.52 C-13.15 42.64 -13.16 41.76 -13.16 40.86 C-13.17 39.95 -13.17 39.04 -13.18 38.1 C-13.19 36.18 -13.19 34.26 -13.2 32.33 C-13.21 29.4 -13.24 26.47 -13.27 23.54 C-13.28 21.67 -13.28 19.8 -13.29 17.92 C-13.3 17.05 -13.31 16.18 -13.32 15.29 C-13.3 9.87 -12.72 5.92 -9.96 1.19 C-6.73 -0.06 -3.43 0.04 0 0 Z M61.04 11.19 C61.04 12.84 61.04 14.49 61.04 16.19 C61.37 16.19 61.7 16.19 62.04 16.19 C62.04 14.54 62.04 12.89 62.04 11.19 C61.71 11.19 61.38 11.19 61.04 11.19 Z " fill="#F6B120" transform="translate(820.95849609375,467.80712890625)"/>
<path d="M0 0 C8.39 -0.07 16.78 -0.12 25.17 -0.16 C29.06 -0.17 32.96 -0.19 36.85 -0.23 C40.61 -0.26 44.37 -0.28 48.13 -0.28 C49.57 -0.29 51 -0.3 52.43 -0.32 C54.44 -0.34 56.45 -0.34 58.47 -0.34 C59.61 -0.35 60.75 -0.35 61.93 -0.36 C65.37 0.04 67.24 0.95 70 3 C71.64 6.28 71.15 9.92 71.15 13.53 C71.15 14.42 71.15 15.3 71.16 16.21 C71.16 19.14 71.17 22.07 71.17 25 C71.17 27.03 71.17 29.06 71.18 31.09 C71.18 35.35 71.19 39.61 71.19 43.87 C71.19 49.33 71.2 54.8 71.22 60.26 C71.23 64.46 71.23 68.65 71.23 72.84 C71.23 74.86 71.23 76.88 71.24 78.89 C71.25 81.71 71.25 84.52 71.24 87.34 C71.25 88.17 71.25 89.01 71.26 89.87 C71.24 93.77 71.21 95.68 69 99 C67.74 89.09 67.77 79.18 67.68 69.21 C67.66 67.3 67.64 65.38 67.62 63.47 C67.57 58.46 67.52 53.45 67.47 48.45 C67.42 43.33 67.36 38.2 67.31 33.08 C67.2 23.05 67.1 13.03 67 3 C66.28 2.99 65.56 2.98 64.81 2.97 C57.99 2.87 51.16 2.77 44.34 2.66 C40.83 2.61 37.32 2.55 33.81 2.5 C29.77 2.45 25.73 2.38 21.69 2.32 C20.44 2.3 19.19 2.28 17.9 2.27 C11.85 2.16 5.98 1.91 0 1 C0 0.67 0 0.34 0 0 Z " fill="#F24320" transform="translate(813,544)"/>
<path d="M0 0 C0.33 0 0.66 0 1 0 C1.33 57.75 1.66 115.5 2 175 C8.49 175.71 8.49 175.71 10.94 173.5 C11.46 172.76 11.46 172.76 12 172 C11.31 174.38 11.31 174.38 10 177 C7.38 178.31 7.38 178.31 5 179 C1.79 176.33 0.16 174.84 -0.62 170.67 C-0.61 169.39 -0.61 168.11 -0.6 166.79 C-0.61 166.08 -0.61 165.36 -0.61 164.63 C-0.62 162.24 -0.59 159.85 -0.57 157.46 C-0.57 155.74 -0.57 154.03 -0.57 152.31 C-0.57 147.66 -0.54 143.01 -0.51 138.36 C-0.48 133.49 -0.47 128.63 -0.47 123.77 C-0.45 114.56 -0.41 105.35 -0.36 96.14 C-0.3 85.66 -0.28 75.18 -0.25 64.69 C-0.2 43.13 -0.11 21.56 0 0 Z " fill="#F34620" transform="translate(808,549)"/>
<path d="M0 0 C0 0.66 0 1.32 0 2 C-3.23 2.03 -6.46 2.05 -9.69 2.06 C-11.06 2.08 -11.06 2.08 -12.45 2.09 C-13.34 2.09 -14.22 2.09 -15.14 2.1 C-15.95 2.1 -16.76 2.11 -17.6 2.11 C-20.15 1.99 -22.5 1.52 -25 1 C-27.33 0.91 -29.67 0.87 -32 0.88 C-33.2 0.87 -34.39 0.87 -35.62 0.87 C-38.87 0.91 -38.87 0.91 -41.5 1.5 C-44.7 2.14 -47.74 2.13 -51 2.12 C-52.2 2.13 -53.39 2.13 -54.62 2.13 C-57.55 2.02 -60.16 1.68 -63 1 C-63 0.67 -63 0.34 -63 0 C-42.05 -1.55 -20.94 -1.68 0 0 Z " fill="#F34620" transform="translate(269,467)"/>
<path d="M0 0 C2.06 3.09 2.25 3.75 2.26 7.24 C2.27 8.09 2.27 8.94 2.28 9.82 C2.27 10.73 2.27 11.65 2.27 12.59 C2.27 13.54 2.27 14.48 2.27 15.45 C2.27 17.45 2.27 19.44 2.26 21.43 C2.25 24.49 2.26 27.54 2.27 30.6 C2.27 32.53 2.27 34.47 2.27 36.41 C2.27 37.32 2.27 38.24 2.28 39.18 C2.27 40.03 2.27 40.88 2.26 41.76 C2.26 42.51 2.26 43.26 2.25 44.03 C2 46 2 46 0 49 C-0.79 44.13 -1.12 39.47 -1.1 34.54 C-1.1 33.86 -1.09 33.18 -1.09 32.48 C-1.09 30.34 -1.08 28.2 -1.06 26.06 C-1.06 24.6 -1.05 23.14 -1.05 21.68 C-1.04 18.12 -1.02 14.56 -1 11 C-0.34 11 0.32 11 1 11 C1 9.35 1 7.7 1 6 C0.34 6 -0.32 6 -1 6 C-0.67 4.02 -0.34 2.04 0 0 Z " fill="#F34620" transform="translate(882,473)"/>
<path d="M0 0 C-3.05 2.03 -3.64 2.25 -7.05 2.23 C-7.83 2.23 -8.61 2.23 -9.42 2.22 C-10.23 2.21 -11.04 2.2 -11.88 2.19 C-13.08 2.19 -13.08 2.19 -14.31 2.19 C-18.36 2.16 -22.03 1.84 -26 1 C-28.17 0.91 -30.33 0.87 -32.5 0.88 C-33.6 0.87 -34.71 0.87 -35.84 0.87 C-38.7 0.99 -41.22 1.41 -44 2 C-50.06 2.38 -55.99 1.76 -62 1 C-62 0.67 -62 0.34 -62 0 C-41.45 -1.81 -20.56 -1.67 0 0 Z " fill="#F34620" transform="translate(1130,467)"/>
<path d="M0 0 C0.33 0.66 0.66 1.32 1 2 C-1.97 5.81 -4.88 9.06 -8.88 11.81 C-12.22 14.18 -14.47 16.72 -16.94 20 C-20.65 24.89 -24.69 27.98 -30 31 C-28.42 27.64 -26.67 25.59 -24 23 C-23.36 22.2 -22.72 21.39 -22.06 20.56 C-19.87 17.84 -17.5 15.44 -15 13 C-14.2 12.15 -13.39 11.31 -12.56 10.44 C-5.79 4 -5.79 4 -2 4 C-1.34 2.68 -0.68 1.36 0 0 Z " fill="#F34620" transform="translate(128,498)"/>
<path d="M0 0 C0.66 0.33 1.32 0.66 2 1 C1.22 1.91 0.43 2.82 -0.38 3.75 C-1.94 5.6 -3.01 7.02 -4 9.25 C-5 11 -5 11 -7.56 12 C-8.37 12.33 -9.17 12.66 -10 13 C-10.66 14.98 -10.66 14.98 -11 17 C-14.23 19.15 -15.28 19.2 -19 19 C-19 18.34 -19 17.68 -19 17 C-17.54 15.71 -17.54 15.71 -15.62 14.38 C-15 13.93 -14.37 13.48 -13.73 13.02 C-12 12 -12 12 -10 12 C-9.73 11.42 -9.46 10.83 -9.19 10.23 C-7.99 7.98 -6.67 6.24 -5 4.31 C-4.48 3.71 -3.97 3.11 -3.44 2.49 C-2 1 -2 1 0 0 Z " fill="#F34620" transform="translate(340,531)"/>
<path d="M0 0 C0.33 0 0.66 0 1 0 C0.81 8.03 0.81 8.03 -2.19 11.62 C-3.12 12.41 -4.04 13.19 -5 14 C-6.02 15.15 -7.02 16.32 -8 17.5 C-10.53 20.5 -13.19 23.27 -16 26 C-16.66 25.67 -17.32 25.34 -18 25 C-14.59 21.01 -11.2 17.16 -7.31 13.62 C-3.33 9.75 -1.69 5.21 0 0 Z " fill="#F34620" transform="translate(1211,756)"/>
<path d="M0 0 C0.66 0 1.32 0 2 0 C2.23 0.58 2.45 1.15 2.69 1.75 C4.34 4.59 6.39 6.01 9 8 C10.33 9.33 11.67 10.67 13 12 C13.99 12.66 14.98 13.32 16 14 C16 14.66 16 15.32 16 16 C10.18 14.72 6.64 11.56 3 7 C3 6.34 3 5.68 3 5 C2.34 5 1.68 5 1 5 C0.67 3.35 0.34 1.7 0 0 Z " fill="#F24520" transform="translate(156,718)"/>
<path d="M0 0 C0.33 0.99 0.66 1.98 1 3 C-0.43 5.26 -0.43 5.26 -2.44 7.69 C-3.1 8.5 -3.75 9.3 -4.43 10.14 C-5.21 11.06 -5.21 11.06 -6 12 C-8.62 8.94 -9 8.27 -9 4 C-7.89 3.71 -6.77 3.42 -5.62 3.12 C-2 2.31 -2 2.31 0 0 Z " fill="#ED3923" transform="translate(869,658)"/>
<path d="M0 0 C7.25 3.35 11.2 7.08 15 14 C8.71 12.29 4.54 7.34 1.06 2.06 C0.71 1.38 0.36 0.7 0 0 Z " fill="#F34620" transform="translate(453,470)"/>
<path d="M0 0 C4.72 1.29 7.69 3.04 11.31 6.31 C12.17 7.07 13.04 7.83 13.93 8.61 C16.15 11.18 16.69 12.67 17 16 C15 15 15 15 14 12 C13.13 11.85 13.13 11.85 12.25 11.69 C9.31 10.79 8.15 9 6.3 6.63 C4.38 4.23 2.21 2.14 0 0 Z " fill="#F34620" transform="translate(1196,495)"/>
<path d="M0 0 C7.62 4.97 7.62 4.97 8.62 7.69 C9.41 12.51 9.7 16.78 7 21 C6.67 21 6.34 21 6 21 C6.07 20.05 6.14 19.09 6.21 18.11 C6.84 11.26 6.84 11.26 4.66 5.03 C2.84 3.57 2.84 3.57 0 2 C0 1.34 0 0.68 0 0 Z " fill="#F34620" transform="translate(342,501)"/>
<path d="M0 0 C0.59 0.13 1.19 0.27 1.8 0.4 C7.49 1.62 13.03 2.33 18.85 2.66 C19.56 2.77 20.27 2.88 21 3 C21.33 3.66 21.66 4.32 22 5 C14.64 5.34 7.69 5.47 1 2 C0.67 1.34 0.34 0.68 0 0 Z " fill="#F34620" transform="translate(1164,546)"/>
<path d="M0 0 C0.66 0.99 1.32 1.98 2 3 C0.62 5 0.62 5 -1 7 C-1.66 7 -2.32 7 -3 7 C-3.25 7.58 -3.5 8.15 -3.75 8.75 C-5.17 11.3 -6.88 13.02 -9 15 C-9.66 14.67 -10.32 14.34 -11 14 C-8.21 9.97 -5.53 6.41 -2 3 C-1.34 2.01 -0.68 1.02 0 0 Z " fill="#F34620" transform="translate(860,703)"/>
<path d="M0 0 C0.7 1.74 0.7 1.74 1 4 C-0.33 6.11 -0.33 6.11 -2.25 8.19 C-3.19 9.23 -3.19 9.23 -4.14 10.29 C-6 12 -6 12 -9 13 C-8.63 10.29 -8.34 9.26 -6.12 7.56 C-5.42 7.05 -4.72 6.53 -4 6 C-2.95 4.37 -1.94 2.7 -1 1 C-0.67 0.67 -0.34 0.34 0 0 Z " fill="#F34620" transform="translate(833,737)"/>
<path d="M0 0 C0.66 0.33 1.32 0.66 2 1 C-1.65 6.08 -3.85 7.79 -10 9 C-6.83 5.74 -3.6 2.78 0 0 Z " fill="#F34620" transform="translate(878,798)"/>
<path d="M0 0 C0.66 0.33 1.32 0.66 2 1 C-2.18 6.78 -2.18 6.78 -6.31 7.88 C-7.64 7.94 -7.64 7.94 -9 8 C-8 5 -8 5 -5.06 3.44 C-4.05 2.96 -3.04 2.49 -2 2 C-1.34 1.34 -0.68 0.68 0 0 Z " fill="#F24520" transform="translate(306,726)"/>
<path d="M0 0 C1.88 0.25 1.88 0.25 4 1 C4.31 1.64 4.62 2.28 4.94 2.94 C6.39 5.75 8.1 5.96 11 7 C11.33 7.66 11.66 8.32 12 9 C6.8 7.64 3.82 5.64 0 2 C0 1.34 0 0.68 0 0 Z " fill="#F34620" transform="translate(982,776)"/>
<path d="M0 0 C0.33 0.66 0.66 1.32 1 2 C-0.32 3.32 -1.64 4.64 -3 6 C-3.66 5.67 -4.32 5.34 -5 5 C-3.35 3.35 -1.7 1.7 0 0 Z " fill="#F34620" transform="translate(825,715)"/>
<path d="M0 0 C2.64 0 5.28 0 8 0 C8 0.33 8 0.66 8 1 C5.36 1 2.72 1 0 1 C0 0.67 0 0.34 0 0 Z " fill="#F34620" transform="translate(857,526)"/>
<path d="M0 0 C2.64 0 5.28 0 8 0 C8 0.33 8 0.66 8 1 C5.36 1 2.72 1 0 1 C0 0.67 0 0.34 0 0 Z " fill="#F34620" transform="translate(828,526)"/>
<path d="M0 0 C0.33 0.66 0.66 1.32 1 2 C0.34 2.66 -0.32 3.32 -1 4 C-0.67 2.68 -0.34 1.36 0 0 Z " fill="#F34620" transform="translate(848,685)"/>
<path d="" fill="#F34620" transform="translate(0,0)"/>
<path d="" fill="#F34620" transform="translate(0,0)"/>
<path d="" fill="#F34620" transform="translate(0,0)"/>
<path d="" fill="#F34620" transform="translate(0,0)"/>
<path d="" fill="#F34620" transform="translate(0,0)"/>
<path d="" fill="#F34620" transform="translate(0,0)"/>
<path d="" fill="#F34620" transform="translate(0,0)"/>
<path d="" fill="#F34620" transform="translate(0,0)"/>
<path d="" fill="#F34620" transform="translate(0,0)"/>
<path d="" fill="#F34620" transform="translate(0,0)"/>
<path d="" fill="#F34620" transform="translate(0,0)"/>
<path d="" fill="#F34620" transform="translate(0,0)"/>
<path d="" fill="#F34620" transform="translate(0,0)"/>
<path d="" fill="#F34620" transform="translate(0,0)"/>
<path d="" fill="#F34620" transform="translate(0,0)"/>
<path d="" fill="#F34620" transform="translate(0,0)"/>
<path d="" fill="#F34620" transform="translate(0,0)"/>
<path d="" fill="#F34620" transform="translate(0,0)"/>
<path d="" fill="#F34620" transform="translate(0,0)"/>
</svg>
